<?xml version="1.0" encoding="UTF-8" standalone="no"?>
<!DOCTYPE svg PUBLIC "-//W3C//DTD SVG 1.1//EN" "http://www.w3.org/Graphics/SVG/1.1/DTD/svg11.dtd">
<svg width="100%" height="100%" viewBox="0 0 190 48" version="1.1" xmlns="http://www.w3.org/2000/svg" xmlns:xlink="http://www.w3.org/1999/xlink" xml:space="preserve" xmlns:serif="http://www.serif.com/" style="fill-rule:evenodd;clip-rule:evenodd;stroke-linejoin:round;stroke-miterlimit:2;">
    <path d="M68.894,24.405C68.405,24.123 67.864,23.895 67.273,23.736C66.682,23.578 66.142,23.402 65.652,23.191C65.162,22.98 64.74,22.733 64.403,22.399C64.065,22.082 63.896,21.607 63.896,21.009C63.896,20.798 63.93,20.551 64.014,20.305C64.099,20.041 64.251,19.812 64.453,19.584C64.656,19.355 64.926,19.179 65.281,19.038C65.618,18.897 66.058,18.827 66.564,18.827C67.104,18.827 67.594,18.95 68.016,19.161C68.438,19.39 68.776,19.689 68.996,20.076L70.499,18.651C69.975,18 69.384,17.56 68.692,17.349C68.016,17.138 67.29,17.032 66.547,17.032C65.72,17.032 65.01,17.156 64.436,17.419C63.845,17.683 63.373,18 63.001,18.405C62.63,18.792 62.359,19.232 62.174,19.689C62.005,20.164 61.904,20.604 61.904,21.026C61.904,21.959 62.072,22.68 62.41,23.226C62.748,23.771 63.153,24.194 63.66,24.528C64.149,24.845 64.69,25.109 65.281,25.285C65.872,25.46 66.412,25.654 66.902,25.848C67.391,26.041 67.814,26.287 68.151,26.569C68.489,26.851 68.658,27.273 68.658,27.836C68.658,28.223 68.574,28.575 68.405,28.856C68.236,29.156 68.016,29.402 67.763,29.595C67.493,29.789 67.206,29.947 66.885,30.053C66.564,30.158 66.243,30.211 65.939,30.211C65.382,30.211 64.842,30.088 64.318,29.842C63.795,29.595 63.373,29.208 63.035,28.68L61.515,30.053C61.971,30.721 62.596,31.214 63.39,31.548C64.183,31.865 65.01,32.041 65.889,32.041C66.547,32.041 67.172,31.936 67.746,31.742C68.32,31.548 68.827,31.249 69.249,30.88C69.671,30.51 70.009,30.035 70.262,29.49C70.515,28.944 70.634,28.328 70.634,27.642C70.634,26.78 70.465,26.112 70.127,25.619C69.806,25.073 69.384,24.686 68.894,24.405Z" style="fill:rgb(244,244,244);fill-rule:nonzero;"/>
    <path d="M82.589,25.249L89.073,25.249L89.073,23.437L82.589,23.437L82.589,19.197L89.563,19.197L89.563,17.384L80.731,17.384L80.731,31.636L89.9,31.636L89.9,29.824L82.589,29.824L82.589,25.249Z" style="fill:rgb(244,244,244);fill-rule:nonzero;"/>
    <path d="M104.169,17.384L98.141,31.636L100.302,31.636L101.653,28.117L108.171,28.117L109.539,31.636L111.7,31.636L105.841,17.384L104.169,17.384ZM102.311,26.428L104.895,19.883L104.929,19.883L107.479,26.428L102.311,26.428Z" style="fill:rgb(244,244,244);fill-rule:nonzero;"/>
    <path d="M127.59,25.478L130.629,25.478L130.629,29.455C130.224,29.701 129.717,29.877 129.126,30C128.535,30.123 127.91,30.194 127.269,30.194C126.509,30.194 125.8,30.053 125.158,29.754C124.516,29.472 123.959,29.068 123.469,28.557C122.997,28.047 122.625,27.449 122.355,26.763C122.085,26.076 121.95,25.32 121.95,24.51C121.95,23.736 122.068,22.997 122.321,22.311C122.574,21.625 122.912,21.026 123.368,20.516C123.824,20.006 124.364,19.601 124.989,19.302C125.614,19.003 126.323,18.845 127.117,18.845C127.809,18.845 128.468,18.95 129.109,19.179C129.734,19.408 130.342,19.795 130.916,20.358L132.233,18.88C131.693,18.299 131.017,17.859 130.224,17.525C129.43,17.191 128.4,17.032 127.134,17.032C126.087,17.032 125.124,17.226 124.246,17.613C123.368,18 122.625,18.528 122,19.197C121.376,19.865 120.886,20.657 120.531,21.572C120.177,22.487 120.008,23.472 120.008,24.528C120.008,25.531 120.177,26.499 120.497,27.396C120.818,28.293 121.308,29.103 121.933,29.789C122.558,30.475 123.317,31.021 124.229,31.425C125.141,31.83 126.171,32.023 127.336,32.023C127.742,32.023 128.197,31.988 128.653,31.936C129.126,31.883 129.582,31.795 130.038,31.689C130.494,31.566 130.933,31.443 131.355,31.285C131.777,31.126 132.166,30.933 132.487,30.721L132.487,23.701L127.606,23.701L127.606,25.478L127.59,25.478Z" style="fill:rgb(244,244,244);fill-rule:nonzero;"/>
    <path d="M147.498,17.384L141.47,31.636L143.631,31.636L144.982,28.117L151.5,28.117L152.868,31.636L155.029,31.636L149.17,17.384L147.498,17.384ZM145.641,26.428L148.224,19.883L148.258,19.883L150.808,26.428L145.641,26.428Z" style="fill:rgb(244,244,244);fill-rule:nonzero;"/>
    <path d="M160.838,19.197L165.245,19.197L165.245,31.636L167.086,31.636L167.086,19.197L171.493,19.197L171.493,17.384L160.838,17.384L160.838,19.197Z" style="fill:rgb(244,244,244);fill-rule:nonzero;"/>
    <path d="M182.671,25.249L189.156,25.249L189.156,23.437L182.671,23.437L182.671,19.197L189.645,19.197L189.645,17.384L180.814,17.384L180.814,31.636L190,31.636L190,29.824L182.671,29.824L182.671,25.249Z" style="fill:rgb(244,244,244);fill-rule:nonzero;"/>
    <path d="M24.212,48C23.638,45.748 23.08,43.531 22.54,41.367C23.131,41.068 23.621,40.839 24.262,40.504C26.93,39.326 29.514,37.953 31.912,36.246C34.917,34.117 37.721,31.724 40.169,28.909C42.094,26.71 43.681,24.264 44.593,21.396C45.201,19.496 45.505,17.543 45.235,15.537C45.015,13.865 44.424,12.352 43.512,10.962C42.415,9.29 40.996,8.006 39.257,7.091C37.079,5.947 34.766,5.525 32.368,5.595C30.24,5.683 28.18,6.158 26.187,6.933C22.506,8.34 19.129,10.346 15.887,12.616C14.941,13.285 14.063,14.041 13.32,14.938C12.915,15.431 12.594,15.977 12.459,16.628C12.24,17.719 12.831,18.563 13.911,18.616C14.654,18.651 15.33,18.352 15.988,18.035C18.032,17.032 19.872,15.677 21.763,14.446C23.334,13.425 24.904,12.44 26.627,11.719C28.315,11.015 30.071,10.628 31.895,10.944C33.887,11.296 35.492,12.264 36.471,14.182C37.146,15.519 37.214,16.944 36.842,18.387C36.437,20.041 35.525,21.378 34.428,22.592C32.942,24.282 31.219,25.689 29.311,26.85C27.319,28.065 25.343,29.314 23.3,30.44C20.902,31.742 18.369,32.675 15.769,33.466C13.591,34.117 11.379,34.416 9.116,34.205C7.225,34.029 5.435,33.449 3.864,32.323C2.446,31.285 1.399,29.93 0.757,28.241C-0.222,25.636 -0.171,22.98 0.453,20.305C1.163,17.279 2.632,14.675 4.438,12.246C5.823,10.381 7.427,8.745 9.133,7.249C11.547,5.12 14.131,3.202 16.883,1.584C17.812,1.038 18.775,0.51 19.653,0C19.956,0.669 20.261,1.302 20.564,1.953C19.737,2.411 18.927,2.85 18.133,3.308C14.688,5.296 11.547,7.707 8.744,10.592C7.225,12.158 5.924,13.918 4.962,15.906C3.932,17.982 3.392,20.199 3.628,22.557C3.898,25.126 5.046,27.114 7.326,28.293C8.677,28.997 10.129,29.208 11.632,29.173C13.692,29.12 15.634,28.522 17.559,27.801C20.413,26.727 23.08,25.249 25.681,23.613C27.201,22.663 28.72,21.677 30.004,20.393C30.679,19.707 31.355,19.02 31.709,18.053C32.334,16.364 31.456,14.903 29.717,14.727C28.771,14.639 27.91,14.956 27.082,15.361C24.87,16.434 22.878,17.894 20.818,19.214C19.247,20.235 17.643,21.22 15.921,21.924C14.722,22.416 13.472,22.716 12.172,22.557C9.943,22.293 8.542,20.446 8.778,18.123C8.964,16.293 9.825,14.798 10.973,13.46C12.257,11.982 13.743,10.768 15.347,9.713C17.812,8.076 20.294,6.51 22.979,5.261C26.069,3.818 29.244,2.674 32.655,2.358C35.12,2.129 37.552,2.27 39.966,2.921C42.094,3.501 44.053,4.434 45.809,5.789C47.565,7.144 48.967,8.815 50.03,10.786C50.993,12.581 51.533,14.499 51.702,16.54C51.871,18.686 51.634,20.798 51.027,22.839C50.452,24.845 49.659,26.763 48.595,28.54C47.109,31.02 45.353,33.273 43.31,35.296C41.233,37.355 39.139,39.378 36.775,41.068C33.702,43.285 30.493,45.237 27.032,46.733C26.103,47.173 25.191,47.578 24.212,48Z" style="fill:rgb(106,191,75);"/>
</svg>
