<svg style="enable-background:new 0 0 75 75" viewBox="0 0 75 75"><path d="M7.3 14.1h24.2v2.4H7.3zm0 7.2h24.2v2.4H7.3zm0 7.3h24.2V31H7.3zm0 7.2h24.2v2.4H7.3zm0 6.9h24.2v2.4H7.3zm0 7.2h24.2v2.4H7.3z"/><path d="M72.6 64.4H42.2c-1.2 0-2.5.4-3.4 1.2v-59c-.2-2 1.4-3.7 3.4-3.7h30.4v61.5zm-39.8 0H2.4V2.9h30.4c2 0 3.6 1.7 3.4 3.7v58.9c-.9-.7-2.1-1.1-3.4-1.1zM42.2.5c-1.8 0-3.5.8-4.7 2.2C36.3 1.3 34.6.5 32.8.5H0v66.3h32.8c.9 0 1.7.3 2.2.9.2.2.4.5.5.7.4.8.6 1.6.7 2.4v3.6h2.4v-3.6c.1-.8.3-1.7.7-2.4.1-.3.3-.5.5-.7.6-.7 1.4-1 2.2-1h33V.5H42.2z"/><path d="M43.6 14.1h24.2v2.4H43.6zm0 7.2h24.2v2.4H43.6zm0 7.3h24.2V31H43.6zm0 7.2h24.2v2.4H43.6zm0 6.9h24.2v2.4H43.6zm0 7.2h24.2v2.4H43.6z"/></svg>