<svg viewBox="0 0 65.6 65.7" style="enable-background:new 0 0 65.6 65.7"><path d="M62.5 62.5H43.8V43.7h18.8v18.8zm0-21.9H43.8c-1.7 0-3.1 1.4-3.1 3.1v18.8c0 1.7 1.4 3.1 3.1 3.1h18.8c1.7 0 3.1-1.4 3.1-3.1V43.7c-.1-1.7-1.5-3.1-3.2-3.1zM21.9 62.5H3.1V43.8h18.8v18.7zm0-21.8H3.1c-1.7 0-3.1 1.4-3.1 3.1v18.8c0 1.7 1.4 3.1 3.1 3.1h18.8c1.7 0 3.1-1.4 3.1-3.1V43.8c0-1.7-1.4-3.1-3.1-3.1zm40.6-18.8H43.8V3.1h18.8v18.8zm0-21.9H43.8c-1.7 0-3.1 1.4-3.1 3.1v18.8c0 1.7 1.4 3.1 3.1 3.1h18.8c1.7 0 3.1-1.4 3.1-3.1V3.1C65.6 1.4 64.2 0 62.5 0zM21.9 21.9H3.1V3.1h18.8v18.8zm0-21.9H3.1C1.4 0 0 1.4 0 3.1v18.8C0 23.6 1.4 25 3.1 25h18.8c1.7 0 3.1-1.4 3.1-3.1V3.1C25 1.4 23.6 0 21.9 0z"/></svg>